<?xml version="1.0" encoding="utf-8"?>
<!-- Generator: Adobe Illustrator 17.1.0, SVG Export Plug-In . SVG Version: 6.00 Build 0)  -->
<!DOCTYPE svg PUBLIC "-//W3C//DTD SVG 1.1//EN" "http://www.w3.org/Graphics/SVG/1.1/DTD/svg11.dtd">
<svg version="1.1" id="Layer_1" xmlns="http://www.w3.org/2000/svg" xmlns:xlink="http://www.w3.org/1999/xlink" x="0px" y="0px"
	 viewBox="0 0 603.53 530" enable-background="new 0 0 603.53 530" xml:space="preserve">
<g>
	<path fill="#FAA31B" d="M211.479,26.042l80.16,232.507h-86.036l-7.915-26.338h-60.698l-7.915,31.338H41.658l79.831-237.507H211.479
		z M183.503,175.145l-14.184-67.955l-17.483,67.955H183.503z"/>
	<path fill="#FFC854" d="M176.16,0.112l80.16,237.507h-92.036l-7.915-31.338H95.67l-7.915,31.338H0.339L80.169,0.112H176.16z
		 M142.184,149.214L128,81.26l-17.483,67.955H142.184z"/>
	<polygon fill="#CD8129" points="128.329,263 41.658,263 0.18,237 87.839,237 	"/>
	<polygon fill="#FCE3C1" points="176.16,0.112 217.479,26.042 297.639,263.638 256.32,237.637 	"/>
	<polygon fill="#FAA31B" points="95.67,206.28 136.989,232.211 129.074,263.549 87.839,237.637 	"/>
	<polygon fill="#CD8129" points="338.704,263 218.613,263 164.356,237 284.654,237 	"/>
	<polyline fill="#CD8129" points="96,206 156.184,206 162.917,232 136.869,232 95.665,205.844 	"/>
	<g>
		<path fill="#FAA31B" d="M506.149,242.23l-7.704-87.868h-1.32l-27.052,109.187l-46.293-26.387l-27.362-82.924l-15.079,0.784
			l-3.299,108.527l-49.945-26.495l-6.792-211.011h75.477l36.616,143.493h7.65l36.945-143.493h75.169l21.77,237.507L506.149,242.23z"
			/>
		<path fill="#FFC854" d="M455.759,237.619l-2.966-109.187h-1.32l-27.052,109.187h-58.716l-28.368-108.527h-1.65l-3.299,108.527
			h-78.84L275.651,0.112h81.477l36.616,143.493h1.65L432.34,0.112h79.169l21.77,237.507H455.759z"/>
		<polygon fill="#FCE3C1" points="511.508,0.112 557.16,26.042 578.931,266.038 529.673,237.621 		"/>
		<polygon fill="#CD8129" points="455.605,237.523 501.411,263.268 578.945,266.305 529.673,237.621 		"/>
		<polygon fill="#CD8129" points="365.75,237.389 411.357,263 470.161,263 424.421,237.14 		"/>
		<polygon fill="#CD8129" points="253.551,237.389 299.201,263 378.044,263 332.388,237.14 		"/>
		<polygon fill="#FAA31B" points="357.078,-0.191 402.755,25.891 414.158,70.3 395.394,143 393.645,143 		"/>
	</g>
	<path fill="#335866" d="M43.268,266.334h119.61c62.004,0,103.097,35.589,103.097,96.862c0,62.74-35.589,100.164-105.298,100.164
		h-24.218v67.144H43.268V266.334z M136.459,347.786v43.296h16.513c14.308,0,20.911-8.808,20.911-22.015s-6.603-21.281-19.076-21.281
		H136.459z"/>
	<path fill="#2C3541" d="M0,237.608h119.61c62.004,0,103.097,35.589,103.097,96.862c0,62.74-35.589,100.164-105.298,100.164H93.191
		v67.144H0V237.608z M93.191,319.059v43.296h16.513c14.308,0,20.911-8.808,20.911-22.015c0-13.207-6.603-21.281-19.076-21.281
		H93.191z"/>
	<path fill="#487E8A" d="M93.191,434.634l43.268,28.727c0,0,141.972,17.594,141.972-107.447
		c0-130.405-168.481-118.306-181.686-118.306c0,0,4.793,0.036,12.38,0c21.92-0.105,67.913,3.327,94.913,35.99
		c7.526,9.105,18.668,22.753,18.668,68.148c0,35.478-14.696,54.806-27.539,67.314c-25.362,24.7-60.153,25.572-76.895,25.572
		L93.191,434.634z"/>
	<path fill="#335866" d="M292.396,518.475l24.214-252.17h77.057l41.093,159.602h12.835l40.727-159.602h82.624l24.584,258.17
		l-79.69-4l-3.67-110.71h-1.835l-31.553,120.71l-65.307-11l-30.089-110.445h-1.469l-3.299,121.445L292.396,518.475z"/>
	<polygon fill="#192638" points="404.66,266.491 355.391,237.602 396.488,397 398.31,397 419.259,318.799 	"/>
	<path fill="#2C3541" d="M243.124,501.791l24.214-264.17h88.057l41.093,159.602h1.835l40.727-159.602h90.624l24.584,264.17h-87.691
		l-3.67-120.71h-1.835l-31.553,120.71h-65.307l-30.089-121.445h-1.469l-3.299,121.445H243.124z"/>
	<polygon fill="#487E8A" points="554.258,501.791 603.53,530.475 578.945,266.305 529.673,237.476 	"/>
	<polygon fill="#192638" points="515.716,530 603.53,530 554.258,501 466.567,501 	"/>
	<polygon fill="#192638" points="292.046,530 378.618,530 329.346,501 243.144,501 	"/>
	<polygon fill="#192638" points="43.268,530 136.79,530 93.191,501 0,501 	"/>
	<polygon fill="#192638" points="412.414,530 479.63,530 429.375,501 363.354,501 	"/>
</g>
</svg>

